<!-- Generated by IcoMoon.io -->
<svg version="1.1" xmlns="http://www.w3.org/2000/svg" width="52" height="70" viewBox="0 0 52 70">
<title>ico-1</title>
<path d="M24.73 0.334c-5.677 0.252-10.992 2.603-14.76 6.524-2.723 2.833-4.43 6.262-4.933 9.931-0.142 1.001-0.17 2.302-0.17 7.941v5.95h-4.599l-0.131 0.137-0.137 0.131v37.472l0.137 0.131 0.131 0.137h50.958l0.115-0.126 0.12-0.126v-37.488l-0.137-0.131-0.131-0.137h-4.599v-5.895c0-5.813-0.033-7.153-0.191-8.198-0.558-3.719-2.231-7.044-4.949-9.827-1.739-1.788-3.544-3.090-5.819-4.211-2.598-1.28-5.759-2.089-8.564-2.193-0.437-0.016-0.93-0.038-1.094-0.049-0.164-0.005-0.727 0.005-1.247 0.027zM27.185 6.781c3.068 0.301 5.841 1.395 8.061 3.188 0.514 0.41 1.542 1.444 1.947 1.952 1.34 1.679 2.215 3.757 2.455 5.824 0.033 0.306 0.055 2.816 0.055 6.716v6.218l-27.863-0.027v-6.207c0-6.836 0-6.776 0.35-8.154 1.105-4.375 4.845-7.87 9.729-9.095 0.711-0.175 1.947-0.383 2.581-0.432 0.58-0.044 2.166-0.033 2.685 0.016z"></path>
</svg>
