<!-- Generated by IcoMoon.io -->
<svg version="1.1" xmlns="http://www.w3.org/2000/svg" width="70" height="70" viewBox="0 0 70 70">
<title>ico-2</title>
<path d="M52.74 21.875c1.239-0.88 2.428-1.86 3.517-2.95 2.283-2.283 3.811-5.093 4.301-7.911 0.537-3.089-0.251-5.957-2.162-7.868-1.524-1.524-3.59-2.33-5.972-2.33-3.393 0-6.967 1.629-9.807 4.468-4.544 4.544-7.193 10.817-8.618 15.293-1.055-4.498-3.159-10.571-7.247-14.66-2.194-2.194-4.998-3.32-7.646-3.32-2.164 0-4.223 0.752-5.76 2.289-3.417 3.417-2.955 9.419 1.031 13.406 1.421 1.421 3.083 2.602 4.834 3.583h-14.836v17.5h4.375v30.625h52.5v-30.625h4.375v-17.5h-12.885zM46.097 8.765c1.895-1.895 4.26-3.027 6.327-3.027 0.731 0 1.757 0.154 2.492 0.889 1.779 1.779 0.78 5.9-2.138 8.818-3.004 3.004-7.045 5.070-10.557 6.43h-3.464c1.269-3.934 3.559-9.328 7.341-13.11zM15.992 10.998c-0.048-0.623-0.003-1.794 0.834-2.631 0.7-0.7 1.626-0.847 2.28-0.847v0c1.453 0 2.971 0.685 4.165 1.879 2.315 2.315 4.222 6 5.514 10.656 0.035 0.126 0.069 0.251 0.102 0.375-0.124-0.033-0.249-0.067-0.375-0.102-4.656-1.292-8.34-3.199-10.655-5.515-1.082-1.082-1.762-2.472-1.865-3.813zM30.625 65.625h-17.5v-28.438h17.5v28.438zM30.625 35h-21.875v-8.75h21.875v8.75zM56.875 65.625h-17.5v-28.438h17.5v28.438zM61.25 35h-21.875v-8.75h21.875v8.75z"></path>
</svg>
