<!-- Generated by IcoMoon.io -->
<svg version="1.1" xmlns="http://www.w3.org/2000/svg" width="70" height="70" viewBox="0 0 70 70">
<title>ico-3</title>
<path d="M60.165 14.546c-5.852-5.373-15.341-5.373-21.193 0l-3.972 3.643-3.976-3.643c-5.852-5.373-15.337-5.373-21.189 0-6.583 6.041-6.583 15.817 0 21.858l25.165 23.097 25.165-23.097c6.58-6.041 6.58-15.82 0-21.858zM56.434 32.813l-21.434 20.002-21.438-20.003c-2.159-1.984-2.996-4.574-2.996-7.329s0.483-5.016 2.646-6.997c1.907-1.753 4.473-2.719 7.221-2.719 2.744 0 5.309 1.666 7.217 3.423l7.35 6.387 7.347-6.391c1.911-1.757 4.473-3.423 7.221-3.423s5.313 0.966 7.221 2.719c2.163 1.981 2.642 4.242 2.642 6.997s-0.833 5.348-2.996 7.332z"></path>
</svg>
